<?xml version="1.0" encoding="us-ascii" standalone="no"?><svg xmlns="http://www.w3.org/2000/svg" xmlns:xlink="http://www.w3.org/1999/xlink" contentStyleType="text/css" height="127px" preserveAspectRatio="none" style="width:614px;height:127px;background:#FFFFFF;" version="1.1" viewBox="0 0 614 127" width="614px" zoomAndPan="magnify"><defs/><g><!--class Main--><g id="elem_Main"><rect codeLine="1" fill="#F1F1F1" height="80.5938" id="Main" rx="2.5" ry="2.5" style="stroke:#181818;stroke-width:0.5;" width="211" x="7" y="23"/><ellipse cx="92.25" cy="39" fill="#ADD1B2" rx="11" ry="11" style="stroke:#181818;stroke-width:1.0;"/><path d="M95.2188,44.6406 Q94.6406,44.9375 94,45.0781 Q93.3594,45.2344 92.6563,45.2344 Q90.1563,45.2344 88.8281,43.5938 Q87.5156,41.9375 87.5156,38.8125 Q87.5156,35.6875 88.8281,34.0313 Q90.1563,32.375 92.6563,32.375 Q93.3594,32.375 94,32.5313 Q94.6563,32.6875 95.2188,32.9844 L95.2188,35.7031 Q94.5938,35.125 94,34.8594 Q93.4063,34.5781 92.7813,34.5781 Q91.4375,34.5781 90.75,35.6563 Q90.0625,36.7188 90.0625,38.8125 Q90.0625,40.9063 90.75,41.9844 Q91.4375,43.0469 92.7813,43.0469 Q93.4063,43.0469 94,42.7813 Q94.5938,42.5 95.2188,41.9219 L95.2188,44.6406 Z " fill="#000000"/><text fill="#000000" font-family="sans-serif" font-size="14" lengthAdjust="spacing" textLength="32" x="112.75" y="43.8467">Main</text><line style="stroke:#181818;stroke-width:0.5;" x1="8" x2="217" y1="55" y2="55"/><line style="stroke:#181818;stroke-width:0.5;" x1="8" x2="217" y1="63" y2="63"/><ellipse cx="18" cy="76.6484" fill="#84BE84" rx="3" ry="3" style="stroke:#038048;stroke-width:1.0;"/><text fill="#000000" font-family="sans-serif" font-size="14" lengthAdjust="spacing" textLength="55" x="27" y="79.9951">setup():</text><ellipse cx="18" cy="92.9453" fill="#84BE84" rx="3" ry="3" style="stroke:#038048;stroke-width:1.0;"/><text fill="#000000" font-family="sans-serif" font-size="14" lengthAdjust="spacing" textLength="185" x="27" y="96.292">main(args: Array&lt;String&gt;):</text></g><!--class UmlGeneratorMacro--><g id="elem_UmlGeneratorMacro"><rect codeLine="6" fill="#F1F1F1" height="113.1875" id="UmlGeneratorMacro" rx="2.5" ry="2.5" style="stroke:#181818;stroke-width:0.5;" width="354" x="253.5" y="7"/><ellipse cx="357.25" cy="23" fill="#ADD1B2" rx="11" ry="11" style="stroke:#181818;stroke-width:1.0;"/><path d="M360.2188,28.6406 Q359.6406,28.9375 359,29.0781 Q358.3594,29.2344 357.6563,29.2344 Q355.1563,29.2344 353.8281,27.5938 Q352.5156,25.9375 352.5156,22.8125 Q352.5156,19.6875 353.8281,18.0313 Q355.1563,16.375 357.6563,16.375 Q358.3594,16.375 359,16.5313 Q359.6563,16.6875 360.2188,16.9844 L360.2188,19.7031 Q359.5938,19.125 359,18.8594 Q358.4063,18.5781 357.7813,18.5781 Q356.4375,18.5781 355.75,19.6563 Q355.0625,20.7188 355.0625,22.8125 Q355.0625,24.9063 355.75,25.9844 Q356.4375,27.0469 357.7813,27.0469 Q358.4063,27.0469 359,26.7813 Q359.5938,26.5 360.2188,25.9219 L360.2188,28.6406 Z " fill="#000000"/><text fill="#000000" font-family="sans-serif" font-size="14" lengthAdjust="spacing" textLength="138" x="377.75" y="27.8467">UmlGeneratorMacro</text><line style="stroke:#181818;stroke-width:0.5;" x1="254.5" x2="606.5" y1="39" y2="39"/><rect fill="none" height="6" style="stroke:#C82930;stroke-width:1.0;" width="6" x="261.5" y="49.6484"/><text fill="#000000" font-family="sans-serif" font-size="14" lengthAdjust="spacing" textLength="328" x="273.5" y="55.9951">staticContentInteractor: StaticContentInteractor</text><ellipse cx="264.5" cy="68.9453" fill="none" rx="3" ry="3" style="stroke:#038048;stroke-width:1.0;"/><text fill="#000000" font-family="sans-serif" font-size="14" lengthAdjust="spacing" textLength="88" x="273.5" y="72.292">name: String</text><ellipse cx="264.5" cy="85.2422" fill="none" rx="3" ry="3" style="stroke:#038048;stroke-width:1.0;"/><text fill="#000000" font-family="sans-serif" font-size="14" lengthAdjust="spacing" textLength="48" x="273.5" y="88.5889">usage:</text><line style="stroke:#181818;stroke-width:0.5;" x1="254.5" x2="606.5" y1="95.8906" y2="95.8906"/><ellipse cx="264.5" cy="109.5391" fill="#84BE84" rx="3" ry="3" style="stroke:#038048;stroke-width:1.0;"/><text fill="#000000" font-family="sans-serif" font-size="14" lengthAdjust="spacing" textLength="295" x="273.5" y="112.8857">execute(args: Map&lt;String, String&gt;): String</text></g><!--SRC=[ROv12W8n34NNzXHPZgWNA2A82t7HrU01GWcbC6s7D0CZujrjjE36JU3d_vyyFs6ju31cU9hD3Yh9CWzR2ofIMm_8eLeuC-FZE0h774vglupnd-uzJLVAn2Y57NekUkW0LL2YlvGibENM9gDl2GlZVqF_PKoa0NsYUgaOw8j2A_b5gDCud3lB7dvClTZ8tW00]--></g></svg>